<svg width="97" height="100" viewBox="0 0 97 100" fill="none" xmlns="http://www.w3.org/2000/svg">
<path d="M52.6362 18.4694C52.9962 19.6547 53.1913 20.915 53.1913 22.2204C53.1913 29.3072 47.4498 35.0487 40.363 35.0487C33.2762 35.0487 27.5347 29.3072 27.5347 22.2204C27.5347 15.1336 33.2762 9.39209 40.363 9.39209C43.9939 9.39209 47.2748 10.9025 49.6104 13.3281" stroke="url(#paint0_linear_507_467)" stroke-linecap="round" stroke-linejoin="round"/>
<path d="M34.0964 21.1602L39.8829 26.5615L55.797 11.5127" stroke="url(#paint1_linear_507_467)" stroke-linecap="round" stroke-linejoin="round"/>
<path d="M56.9623 1H24.0539C17.9873 1 13.066 5.92126 13.066 11.9878V32.453C13.066 38.5196 17.9873 43.4409 24.0539 43.4409H26.9046L32.361 51.1128L37.8174 43.4409H56.9673C63.0338 43.4409 67.9551 38.5196 67.9551 32.453V11.9878C67.9551 5.92126 63.0338 1 56.9673 1H56.9623Z" stroke="#918F9E" stroke-linecap="round" stroke-linejoin="round"/>
<path d="M0.527832 89.5475L16.942 68.8922C21.1981 63.5358 27.6648 60.415 34.5065 60.415H54.0165C57.0273 60.415 59.4679 62.8557 59.4679 65.8664C59.4679 68.8772 57.0273 71.3178 54.0165 71.3178H40.8932" stroke="#918F9E" stroke-linecap="round" stroke-linejoin="round"/>
<path d="M29.8503 99.0002L37.9524 89.5628C39.1327 88.1875 40.7781 87.2872 42.5736 87.0372L63.724 84.0914C67.9901 83.4963 71.9961 81.6708 75.242 78.8351L93.9968 62.4609C95.9823 60.7304 96.0823 57.6797 94.2218 55.8192C92.5214 54.1187 89.7957 54.0337 87.9952 55.6241L74.6118 67.4221C73.7416 68.1923 72.6163 68.6175 71.456 68.6175H58.7927" stroke="#918F9E" stroke-linecap="round" stroke-linejoin="round"/>
<path d="M51.1458 60.3701H52.9712C55.3468 60.3701 57.6474 59.5499 59.4879 58.0445L68.3902 50.7727C70.0206 49.4423 72.3912 49.5624 73.8766 51.0477C75.552 52.7232 75.462 55.4689 73.6765 57.0293L60.5132 68.0371L77.9476 53.2383C79.578 51.8129 82.0287 51.883 83.5791 53.3933C85.3045 55.0738 85.2445 58.0395 83.449 59.6399" stroke="#918F9E" stroke-linecap="round" stroke-linejoin="round"/>
<defs>
<linearGradient id="paint0_linear_507_467" x1="53.1913" y1="35.0487" x2="27.5347" y2="35.0487" gradientUnits="userSpaceOnUse">
<stop stop-color="#80A0E2"/>
<stop offset="0.489293" stop-color="#E1C8CC"/>
<stop offset="1" stop-color="#80CCE0"/>
</linearGradient>
<linearGradient id="paint1_linear_507_467" x1="55.797" y1="26.5615" x2="34.0964" y2="26.5615" gradientUnits="userSpaceOnUse">
<stop stop-color="#80A0E2"/>
<stop offset="0.489293" stop-color="#E1C8CC"/>
<stop offset="1" stop-color="#80CCE0"/>
</linearGradient>
</defs>
</svg>
