<svg width="102" height="102" viewBox="0 0 102 102" fill="none" xmlns="http://www.w3.org/2000/svg">
<circle cx="50.9999" cy="51" r="50.5" stroke="#46444D"/>
<mask id="path-2-inside-1_507_247" fill="white">
<path d="M24.7509 56.234C23.5389 56.234 22.5069 55.958 21.6549 55.406C20.8149 54.854 20.2269 54.098 19.8909 53.138L21.6729 52.094C22.1769 53.51 23.2209 54.218 24.8049 54.218C25.5849 54.218 26.1669 54.068 26.5509 53.768C26.9469 53.456 27.1449 53.054 27.1449 52.562C27.1449 52.046 26.9349 51.656 26.5149 51.392C26.0949 51.116 25.3509 50.816 24.2829 50.492C23.6829 50.312 23.1969 50.144 22.8249 49.988C22.4529 49.832 22.0569 49.616 21.6369 49.34C21.2289 49.052 20.9229 48.698 20.7189 48.278C20.5149 47.858 20.4129 47.366 20.4129 46.802C20.4129 45.686 20.8089 44.804 21.6009 44.156C22.3929 43.496 23.3469 43.166 24.4629 43.166C25.4709 43.166 26.3529 43.412 27.1089 43.904C27.8649 44.396 28.4469 45.074 28.8549 45.938L27.1089 46.946C26.5809 45.77 25.6989 45.182 24.4629 45.182C23.8629 45.182 23.3829 45.326 23.0229 45.614C22.6629 45.89 22.4829 46.268 22.4829 46.748C22.4829 47.216 22.6629 47.588 23.0229 47.864C23.3949 48.128 24.0609 48.41 25.0209 48.71C25.5009 48.866 25.8489 48.986 26.0649 49.07C26.2929 49.142 26.6049 49.262 27.0009 49.43C27.4089 49.598 27.7149 49.766 27.9189 49.934C28.1229 50.102 28.3389 50.312 28.5669 50.564C28.8069 50.816 28.9749 51.104 29.0709 51.428C29.1669 51.752 29.2149 52.118 29.2149 52.526C29.2149 53.666 28.8009 54.572 27.9729 55.244C27.1569 55.904 26.0829 56.234 24.7509 56.234ZM35.3664 56.234C34.0464 56.234 32.9244 55.778 32.0004 54.866C31.0764 53.954 30.6144 52.832 30.6144 51.5C30.6144 50.168 31.0764 49.046 32.0004 48.134C32.9244 47.222 34.0464 46.766 35.3664 46.766C36.6984 46.766 37.8204 47.222 38.7324 48.134C39.6564 49.046 40.1184 50.168 40.1184 51.5C40.1184 52.832 39.6564 53.954 38.7324 54.866C37.8204 55.778 36.6984 56.234 35.3664 56.234ZM33.3684 53.534C33.9084 54.074 34.5744 54.344 35.3664 54.344C36.1584 54.344 36.8244 54.074 37.3644 53.534C37.9044 52.994 38.1744 52.316 38.1744 51.5C38.1744 50.684 37.9044 50.006 37.3644 49.466C36.8244 48.926 36.1584 48.656 35.3664 48.656C34.5744 48.656 33.9084 48.926 33.3684 49.466C32.8284 50.006 32.5584 50.684 32.5584 51.5C32.5584 52.316 32.8284 52.994 33.3684 53.534ZM46.1242 56.234C44.7682 56.234 43.6342 55.778 42.7222 54.866C41.8222 53.954 41.3722 52.832 41.3722 51.5C41.3722 50.156 41.8222 49.034 42.7222 48.134C43.6342 47.222 44.7682 46.766 46.1242 46.766C47.0002 46.766 47.7982 46.976 48.5182 47.396C49.2382 47.816 49.7782 48.38 50.1382 49.088L48.4642 50.06C48.2602 49.628 47.9482 49.292 47.5282 49.052C47.1202 48.8 46.6462 48.674 46.1062 48.674C45.3142 48.674 44.6482 48.944 44.1082 49.484C43.5802 50.024 43.3162 50.696 43.3162 51.5C43.3162 52.304 43.5802 52.976 44.1082 53.516C44.6482 54.056 45.3142 54.326 46.1062 54.326C46.6342 54.326 47.1082 54.2 47.5282 53.948C47.9602 53.696 48.2842 53.36 48.5002 52.94L50.1742 53.894C49.7902 54.614 49.2382 55.184 48.5182 55.604C47.7982 56.024 47.0002 56.234 46.1242 56.234ZM53.4153 45.29C53.1753 45.53 52.8873 45.65 52.5513 45.65C52.2153 45.65 51.9213 45.53 51.6693 45.29C51.4293 45.038 51.3093 44.744 51.3093 44.408C51.3093 44.072 51.4293 43.784 51.6693 43.544C51.9093 43.292 52.2033 43.166 52.5513 43.166C52.8993 43.166 53.1933 43.292 53.4333 43.544C53.6733 43.784 53.7933 44.072 53.7933 44.408C53.7933 44.744 53.6673 45.038 53.4153 45.29ZM51.5793 56V47H53.5233V56H51.5793ZM62.9085 47H64.8525V56H62.9085V54.704C62.1765 55.724 61.1265 56.234 59.7585 56.234C58.5225 56.234 57.4665 55.778 56.5905 54.866C55.7145 53.942 55.2765 52.82 55.2765 51.5C55.2765 50.168 55.7145 49.046 56.5905 48.134C57.4665 47.222 58.5225 46.766 59.7585 46.766C61.1265 46.766 62.1765 47.27 62.9085 48.278V47ZM58.0305 53.57C58.5705 54.11 59.2485 54.38 60.0645 54.38C60.8805 54.38 61.5585 54.11 62.0985 53.57C62.6385 53.018 62.9085 52.328 62.9085 51.5C62.9085 50.672 62.6385 49.988 62.0985 49.448C61.5585 48.896 60.8805 48.62 60.0645 48.62C59.2485 48.62 58.5705 48.896 58.0305 49.448C57.4905 49.988 57.2205 50.672 57.2205 51.5C57.2205 52.328 57.4905 53.018 58.0305 53.57ZM67.1184 56V42.86H69.0624V56H67.1184ZM78.8255 45.38H73.5155V48.908H78.6455V50.888H73.5155V56H71.4455V43.4H78.8255V45.38ZM82.472 45.29C82.232 45.53 81.944 45.65 81.608 45.65C81.272 45.65 80.978 45.53 80.726 45.29C80.486 45.038 80.366 44.744 80.366 44.408C80.366 44.072 80.486 43.784 80.726 43.544C80.966 43.292 81.26 43.166 81.608 43.166C81.956 43.166 82.25 43.292 82.49 43.544C82.73 43.784 82.85 44.072 82.85 44.408C82.85 44.744 82.724 45.038 82.472 45.29ZM80.636 56V47H82.58V56H80.636Z"/>
</mask>
<path d="M24.7509 56.234C23.5389 56.234 22.5069 55.958 21.6549 55.406C20.8149 54.854 20.2269 54.098 19.8909 53.138L21.6729 52.094C22.1769 53.51 23.2209 54.218 24.8049 54.218C25.5849 54.218 26.1669 54.068 26.5509 53.768C26.9469 53.456 27.1449 53.054 27.1449 52.562C27.1449 52.046 26.9349 51.656 26.5149 51.392C26.0949 51.116 25.3509 50.816 24.2829 50.492C23.6829 50.312 23.1969 50.144 22.8249 49.988C22.4529 49.832 22.0569 49.616 21.6369 49.34C21.2289 49.052 20.9229 48.698 20.7189 48.278C20.5149 47.858 20.4129 47.366 20.4129 46.802C20.4129 45.686 20.8089 44.804 21.6009 44.156C22.3929 43.496 23.3469 43.166 24.4629 43.166C25.4709 43.166 26.3529 43.412 27.1089 43.904C27.8649 44.396 28.4469 45.074 28.8549 45.938L27.1089 46.946C26.5809 45.77 25.6989 45.182 24.4629 45.182C23.8629 45.182 23.3829 45.326 23.0229 45.614C22.6629 45.89 22.4829 46.268 22.4829 46.748C22.4829 47.216 22.6629 47.588 23.0229 47.864C23.3949 48.128 24.0609 48.41 25.0209 48.71C25.5009 48.866 25.8489 48.986 26.0649 49.07C26.2929 49.142 26.6049 49.262 27.0009 49.43C27.4089 49.598 27.7149 49.766 27.9189 49.934C28.1229 50.102 28.3389 50.312 28.5669 50.564C28.8069 50.816 28.9749 51.104 29.0709 51.428C29.1669 51.752 29.2149 52.118 29.2149 52.526C29.2149 53.666 28.8009 54.572 27.9729 55.244C27.1569 55.904 26.0829 56.234 24.7509 56.234ZM35.3664 56.234C34.0464 56.234 32.9244 55.778 32.0004 54.866C31.0764 53.954 30.6144 52.832 30.6144 51.5C30.6144 50.168 31.0764 49.046 32.0004 48.134C32.9244 47.222 34.0464 46.766 35.3664 46.766C36.6984 46.766 37.8204 47.222 38.7324 48.134C39.6564 49.046 40.1184 50.168 40.1184 51.5C40.1184 52.832 39.6564 53.954 38.7324 54.866C37.8204 55.778 36.6984 56.234 35.3664 56.234ZM33.3684 53.534C33.9084 54.074 34.5744 54.344 35.3664 54.344C36.1584 54.344 36.8244 54.074 37.3644 53.534C37.9044 52.994 38.1744 52.316 38.1744 51.5C38.1744 50.684 37.9044 50.006 37.3644 49.466C36.8244 48.926 36.1584 48.656 35.3664 48.656C34.5744 48.656 33.9084 48.926 33.3684 49.466C32.8284 50.006 32.5584 50.684 32.5584 51.5C32.5584 52.316 32.8284 52.994 33.3684 53.534ZM46.1242 56.234C44.7682 56.234 43.6342 55.778 42.7222 54.866C41.8222 53.954 41.3722 52.832 41.3722 51.5C41.3722 50.156 41.8222 49.034 42.7222 48.134C43.6342 47.222 44.7682 46.766 46.1242 46.766C47.0002 46.766 47.7982 46.976 48.5182 47.396C49.2382 47.816 49.7782 48.38 50.1382 49.088L48.4642 50.06C48.2602 49.628 47.9482 49.292 47.5282 49.052C47.1202 48.8 46.6462 48.674 46.1062 48.674C45.3142 48.674 44.6482 48.944 44.1082 49.484C43.5802 50.024 43.3162 50.696 43.3162 51.5C43.3162 52.304 43.5802 52.976 44.1082 53.516C44.6482 54.056 45.3142 54.326 46.1062 54.326C46.6342 54.326 47.1082 54.2 47.5282 53.948C47.9602 53.696 48.2842 53.36 48.5002 52.94L50.1742 53.894C49.7902 54.614 49.2382 55.184 48.5182 55.604C47.7982 56.024 47.0002 56.234 46.1242 56.234ZM53.4153 45.29C53.1753 45.53 52.8873 45.65 52.5513 45.65C52.2153 45.65 51.9213 45.53 51.6693 45.29C51.4293 45.038 51.3093 44.744 51.3093 44.408C51.3093 44.072 51.4293 43.784 51.6693 43.544C51.9093 43.292 52.2033 43.166 52.5513 43.166C52.8993 43.166 53.1933 43.292 53.4333 43.544C53.6733 43.784 53.7933 44.072 53.7933 44.408C53.7933 44.744 53.6673 45.038 53.4153 45.29ZM51.5793 56V47H53.5233V56H51.5793ZM62.9085 47H64.8525V56H62.9085V54.704C62.1765 55.724 61.1265 56.234 59.7585 56.234C58.5225 56.234 57.4665 55.778 56.5905 54.866C55.7145 53.942 55.2765 52.82 55.2765 51.5C55.2765 50.168 55.7145 49.046 56.5905 48.134C57.4665 47.222 58.5225 46.766 59.7585 46.766C61.1265 46.766 62.1765 47.27 62.9085 48.278V47ZM58.0305 53.57C58.5705 54.11 59.2485 54.38 60.0645 54.38C60.8805 54.38 61.5585 54.11 62.0985 53.57C62.6385 53.018 62.9085 52.328 62.9085 51.5C62.9085 50.672 62.6385 49.988 62.0985 49.448C61.5585 48.896 60.8805 48.62 60.0645 48.62C59.2485 48.62 58.5705 48.896 58.0305 49.448C57.4905 49.988 57.2205 50.672 57.2205 51.5C57.2205 52.328 57.4905 53.018 58.0305 53.57ZM67.1184 56V42.86H69.0624V56H67.1184ZM78.8255 45.38H73.5155V48.908H78.6455V50.888H73.5155V56H71.4455V43.4H78.8255V45.38ZM82.472 45.29C82.232 45.53 81.944 45.65 81.608 45.65C81.272 45.65 80.978 45.53 80.726 45.29C80.486 45.038 80.366 44.744 80.366 44.408C80.366 44.072 80.486 43.784 80.726 43.544C80.966 43.292 81.26 43.166 81.608 43.166C81.956 43.166 82.25 43.292 82.49 43.544C82.73 43.784 82.85 44.072 82.85 44.408C82.85 44.744 82.724 45.038 82.472 45.29ZM80.636 56V47H82.58V56H80.636Z" fill="#161517"/>
<path d="M21.6549 55.406L21.1057 56.2417L21.1111 56.2453L21.6549 55.406ZM19.8909 53.138L19.3854 52.2752L18.6751 52.6913L18.947 53.4684L19.8909 53.138ZM21.6729 52.094L22.615 51.7587L22.2098 50.6204L21.1674 51.2312L21.6729 52.094ZM26.5509 53.768L27.1665 54.556L27.1697 54.5535L26.5509 53.768ZM26.5149 51.392L25.9657 52.2277L25.9741 52.2333L25.9827 52.2386L26.5149 51.392ZM24.2829 50.492L24.5732 49.5351L24.5702 49.5342L24.2829 50.492ZM22.8249 49.988L23.2116 49.0658H23.2116L22.8249 49.988ZM21.6369 49.34L21.0602 50.157L21.0738 50.1666L21.0877 50.1757L21.6369 49.34ZM20.7189 48.278L21.6184 47.8411L20.7189 48.278ZM21.6009 44.156L22.2341 44.93L22.2411 44.9242L21.6009 44.156ZM28.8549 45.938L29.3549 46.804L30.1523 46.3436L29.7591 45.511L28.8549 45.938ZM27.1089 46.946L26.1966 47.3556L26.6501 48.3656L27.6089 47.812L27.1089 46.946ZM23.0229 45.614L23.6313 46.4076L23.6395 46.4013L23.6476 46.3949L23.0229 45.614ZM23.0229 47.864L22.4144 48.6576L22.4291 48.6688L22.4441 48.6795L23.0229 47.864ZM25.0209 48.71L25.33 47.7589L25.3191 47.7555L25.0209 48.71ZM26.0649 49.07L25.7024 50.002L25.7327 50.0138L25.7637 50.0236L26.0649 49.07ZM27.0009 49.43L26.6103 50.3506L26.6201 50.3547L27.0009 49.43ZM27.9189 49.934L28.5546 49.1621L27.9189 49.934ZM28.5669 50.564L27.8253 51.2349L27.8339 51.2444L27.8427 51.2537L28.5669 50.564ZM29.0709 51.428L30.0297 51.1439L30.0297 51.1439L29.0709 51.428ZM27.9729 55.244L28.6017 56.0215L28.603 56.0205L27.9729 55.244ZM24.7509 55.234C23.6939 55.234 22.8595 54.995 22.1986 54.5667L21.1111 56.2453C22.1542 56.921 23.3838 57.234 24.7509 57.234V55.234ZM22.2041 54.5703C21.5499 54.1404 21.0991 53.5631 20.8347 52.8076L18.947 53.4684C19.3546 54.6329 20.0799 55.5676 21.1057 56.2417L22.2041 54.5703ZM20.3964 54.0008L22.1784 52.9568L21.1674 51.2312L19.3854 52.2752L20.3964 54.0008ZM20.7308 52.4293C21.0401 53.2983 21.5428 54.0197 22.2726 54.5146C22.9981 55.0067 23.864 55.218 24.8049 55.218V53.218C24.1617 53.218 23.7136 53.0753 23.3951 52.8594C23.081 52.6463 22.8097 52.3057 22.615 51.7587L20.7308 52.4293ZM24.8049 55.218C25.6833 55.218 26.5288 55.0543 27.1665 54.556L25.9352 52.98C25.805 53.0817 25.4864 53.218 24.8049 53.218V55.218ZM27.1697 54.5535C27.7995 54.0573 28.1449 53.3691 28.1449 52.562H26.1449C26.1449 52.7389 26.0943 52.8547 25.932 52.9825L27.1697 54.5535ZM28.1449 52.562C28.1449 51.7189 27.7721 51.0011 27.047 50.5454L25.9827 52.2386C26.0977 52.3109 26.1449 52.3731 26.1449 52.562H28.1449ZM27.0641 50.5563C26.5141 50.1949 25.649 49.8614 24.5732 49.5351L23.9926 51.4489C25.0527 51.7706 25.6756 52.0371 25.9657 52.2277L27.0641 50.5563ZM24.5702 49.5342C23.9877 49.3594 23.5386 49.2029 23.2116 49.0658L22.4381 50.9102C22.8552 51.0851 23.378 51.2646 23.9955 51.4498L24.5702 49.5342ZM23.2116 49.0658C22.9081 48.9385 22.5666 48.7544 22.1861 48.5043L21.0877 50.1757C21.5471 50.4776 21.9976 50.7255 22.4381 50.9102L23.2116 49.0658ZM22.2136 48.523C21.9336 48.3254 21.7435 48.0986 21.6184 47.8411L19.8194 48.7149C20.1023 49.2974 20.5241 49.7786 21.0602 50.157L22.2136 48.523ZM21.6184 47.8411C21.4928 47.5826 21.4129 47.2457 21.4129 46.802H19.4129C19.4129 47.4863 19.5369 48.1334 19.8194 48.7149L21.6184 47.8411ZM21.4129 46.802C21.4129 45.955 21.6972 45.3693 22.2341 44.93L20.9676 43.382C19.9206 44.2387 19.4129 45.417 19.4129 46.802H21.4129ZM22.2411 44.9242C22.838 44.4267 23.5601 44.166 24.4629 44.166V42.166C23.1337 42.166 21.9477 42.5653 20.9607 43.3878L22.2411 44.9242ZM24.4629 44.166C25.3008 44.166 25.9884 44.3679 26.5634 44.7421L27.6543 43.0659C26.7174 42.4561 25.641 42.166 24.4629 42.166V44.166ZM26.5634 44.7421C27.1547 45.1269 27.6169 45.6583 27.9506 46.365L29.7591 45.511C29.2769 44.4897 28.5751 43.6651 27.6543 43.0659L26.5634 44.7421ZM28.3549 45.072L26.6089 46.08L27.6089 47.812L29.3549 46.804L28.3549 45.072ZM28.0211 46.5364C27.6968 45.814 27.2345 45.2099 26.6061 44.7909C25.9749 44.3702 25.2447 44.182 24.4629 44.182V46.182C24.917 46.182 25.2458 46.2878 25.4967 46.455C25.7503 46.6241 25.9929 46.902 26.1966 47.3556L28.0211 46.5364ZM24.4629 44.182C23.7049 44.182 22.9828 44.3654 22.3982 44.8331L23.6476 46.3949C23.7829 46.2866 24.0208 46.182 24.4629 46.182V44.182ZM22.4144 44.8204C21.7914 45.2981 21.4829 45.978 21.4829 46.748H23.4829C23.4829 46.558 23.5344 46.4819 23.6313 46.4076L22.4144 44.8204ZM21.4829 46.748C21.4829 47.5155 21.7986 48.1855 22.4144 48.6576L23.6313 47.0704C23.5272 46.9905 23.4829 46.9165 23.4829 46.748H21.4829ZM22.4441 48.6795C22.9549 49.042 23.7534 49.3616 24.7226 49.6645L25.3191 47.7555C24.3683 47.4584 23.8348 47.214 23.6016 47.0485L22.4441 48.6795ZM24.7118 49.661C25.1896 49.8163 25.5147 49.929 25.7024 50.002L26.4273 48.138C26.1831 48.043 25.8121 47.9157 25.33 47.759L24.7118 49.661ZM25.7637 50.0236C25.9466 50.0813 26.2245 50.1869 26.6103 50.3506L27.3914 48.5094C26.9853 48.3371 26.6392 48.2027 26.366 48.1164L25.7637 50.0236ZM26.6201 50.3547C26.9889 50.5065 27.1904 50.6295 27.2832 50.7059L28.5546 49.1621C28.2394 48.9025 27.8289 48.6895 27.3816 48.5053L26.6201 50.3547ZM27.2832 50.7059C27.4406 50.8356 27.6214 51.0095 27.8253 51.2349L29.3084 49.8931C29.0564 49.6145 28.8052 49.3684 28.5546 49.1621L27.2832 50.7059ZM27.8427 51.2537C27.9769 51.3945 28.0624 51.5446 28.1121 51.7121L30.0297 51.1439C29.8873 50.6634 29.6369 50.2375 29.291 49.8743L27.8427 51.2537ZM28.1121 51.7121C28.1758 51.9271 28.2149 52.195 28.2149 52.526H30.2149C30.2149 52.041 30.158 51.5769 30.0297 51.1439L28.1121 51.7121ZM28.2149 52.526C28.2149 53.3885 27.9188 54 27.3427 54.4675L28.603 56.0205C29.6829 55.144 30.2149 53.9435 30.2149 52.526H28.2149ZM27.344 54.4665C26.7494 54.9475 25.9168 55.234 24.7509 55.234V57.234C26.249 57.234 27.5644 56.8605 28.6017 56.0215L27.344 54.4665ZM32.0004 54.866L31.2979 55.5777L32.0004 54.866ZM32.0004 48.134L32.7028 48.8457L32.7028 48.8457L32.0004 48.134ZM38.7324 48.134L38.0253 48.8411L38.0299 48.8457L38.7324 48.134ZM38.7324 54.866L38.0299 54.1543L38.0253 54.1589L38.7324 54.866ZM37.3644 53.534L38.0715 54.2411V54.2411L37.3644 53.534ZM33.3684 49.466L34.0755 50.1731L34.0755 50.1731L33.3684 49.466ZM35.3664 55.234C34.3044 55.234 33.4362 54.8781 32.7028 54.1543L31.2979 55.5777C32.4125 56.6779 33.7884 57.234 35.3664 57.234V55.234ZM32.7028 54.1543C31.9747 53.4356 31.6144 52.5723 31.6144 51.5H29.6144C29.6144 53.0917 30.1781 54.4724 31.2979 55.5777L32.7028 54.1543ZM31.6144 51.5C31.6144 50.4277 31.9747 49.5644 32.7028 48.8457L31.2979 47.4223C30.1781 48.5276 29.6144 49.9083 29.6144 51.5H31.6144ZM32.7028 48.8457C33.4362 48.1219 34.3044 47.766 35.3664 47.766V45.766C33.7884 45.766 32.4125 46.3221 31.2979 47.4223L32.7028 48.8457ZM35.3664 47.766C36.4429 47.766 37.3076 48.1234 38.0253 48.8411L39.4395 47.4269C38.3332 46.3206 36.9539 45.766 35.3664 45.766V47.766ZM38.0299 48.8457C38.7581 49.5644 39.1184 50.4277 39.1184 51.5H41.1184C41.1184 49.9083 40.5547 48.5276 39.4348 47.4223L38.0299 48.8457ZM39.1184 51.5C39.1184 52.5723 38.7581 53.4356 38.0299 54.1543L39.4348 55.5777C40.5547 54.4724 41.1184 53.0917 41.1184 51.5H39.1184ZM38.0253 54.1589C37.3076 54.8766 36.4429 55.234 35.3664 55.234V57.234C36.9539 57.234 38.3332 56.6794 39.4395 55.5731L38.0253 54.1589ZM32.6613 54.2411C33.3964 54.9763 34.3201 55.344 35.3664 55.344V53.344C34.8286 53.344 34.4203 53.1717 34.0755 52.8269L32.6613 54.2411ZM35.3664 55.344C36.4126 55.344 37.3363 54.9763 38.0715 54.2411L36.6573 52.8269C36.3124 53.1717 35.9041 53.344 35.3664 53.344V55.344ZM38.0715 54.2411C38.8128 53.4998 39.1744 52.5611 39.1744 51.5H37.1744C37.1744 52.0709 36.996 52.4882 36.6573 52.8269L38.0715 54.2411ZM39.1744 51.5C39.1744 50.4389 38.8128 49.5002 38.0715 48.7589L36.6573 50.1731C36.996 50.5118 37.1744 50.9291 37.1744 51.5H39.1744ZM38.0715 48.7589C37.3363 48.0237 36.4126 47.656 35.3664 47.656V49.656C35.9041 49.656 36.3124 49.8283 36.6573 50.1731L38.0715 48.7589ZM35.3664 47.656C34.3201 47.656 33.3964 48.0237 32.6613 48.7589L34.0755 50.1731C34.4203 49.8283 34.8286 49.656 35.3664 49.656V47.656ZM32.6613 48.7589C31.92 49.5002 31.5584 50.4389 31.5584 51.5H33.5584C33.5584 50.9291 33.7368 50.5118 34.0755 50.1731L32.6613 48.7589ZM31.5584 51.5C31.5584 52.5611 31.92 53.4998 32.6613 54.2411L34.0755 52.8269C33.7368 52.4882 33.5584 52.0709 33.5584 51.5H31.5584ZM42.7222 54.866L42.0104 55.5684L42.0151 55.5731L42.7222 54.866ZM42.7222 48.134L43.4293 48.8411L42.7222 48.134ZM50.1382 49.088L50.6403 49.9528L51.4583 49.4779L51.0296 48.6348L50.1382 49.088ZM48.4642 50.06L47.5599 50.487L48.0248 51.4715L48.9663 50.9248L48.4642 50.06ZM47.5282 49.052L47.0027 49.9028L47.0172 49.9118L47.032 49.9202L47.5282 49.052ZM44.1082 49.484L43.401 48.7768L43.3932 48.7849L44.1082 49.484ZM44.1082 53.516L43.3931 54.2152L43.4011 54.2231L44.1082 53.516ZM47.5282 53.948L47.0243 53.0842L47.0137 53.0905L47.5282 53.948ZM48.5002 52.94L48.9953 52.0712L48.0883 51.5543L47.6109 52.4827L48.5002 52.94ZM50.1742 53.894L51.0565 54.3646L51.5141 53.5066L50.6693 53.0252L50.1742 53.894ZM46.1242 55.234C45.0183 55.234 44.1433 54.8729 43.4293 54.1589L42.0151 55.5731C43.1251 56.6831 44.5181 57.234 46.1242 57.234V55.234ZM43.434 54.1636C42.7266 53.4468 42.3722 52.5807 42.3722 51.5H40.3722C40.3722 53.0833 40.9178 54.4612 42.0104 55.5684L43.434 54.1636ZM42.3722 51.5C42.3722 50.4047 42.7282 49.5422 43.4293 48.8411L42.0151 47.4269C40.9162 48.5258 40.3722 49.9073 40.3722 51.5H42.3722ZM43.4293 48.8411C44.1433 48.1271 45.0183 47.766 46.1242 47.766V45.766C44.5181 45.766 43.1251 46.3169 42.0151 47.4269L43.4293 48.8411ZM46.1242 47.766C46.8325 47.766 47.4552 47.9336 48.0143 48.2598L49.0221 46.5322C48.1412 46.0184 47.1679 45.766 46.1242 45.766V47.766ZM48.0143 48.2598C48.577 48.588 48.9783 49.0132 49.2468 49.5412L51.0296 48.6348C50.5781 47.7468 49.8994 47.044 49.0221 46.5322L48.0143 48.2598ZM49.6361 48.2232L47.9621 49.1952L48.9663 50.9248L50.6403 49.9528L49.6361 48.2232ZM49.3684 49.633C49.0757 49.0131 48.62 48.5241 48.0243 48.1838L47.032 49.9202C47.2764 50.0599 47.4447 50.2429 47.5599 50.487L49.3684 49.633ZM48.0537 48.2012C47.4685 47.8398 46.8078 47.674 46.1062 47.674V49.674C46.4846 49.674 46.7719 49.7602 47.0027 49.9028L48.0537 48.2012ZM46.1062 47.674C45.06 47.674 44.1362 48.0417 43.4011 48.7769L44.8153 50.1911C45.1601 49.8463 45.5684 49.674 46.1062 49.674V47.674ZM43.3932 48.7849C42.6699 49.5246 42.3162 50.4533 42.3162 51.5H44.3162C44.3162 50.9387 44.4905 50.5233 44.8232 50.1831L43.3932 48.7849ZM42.3162 51.5C42.3162 52.5467 42.6699 53.4753 43.3932 54.2151L44.8232 52.8169C44.4905 52.4767 44.3162 52.0613 44.3162 51.5H42.3162ZM43.4011 54.2231C44.1362 54.9583 45.06 55.326 46.1062 55.326V53.326C45.5684 53.326 45.1601 53.1537 44.8153 52.8089L43.4011 54.2231ZM46.1062 55.326C46.8008 55.326 47.4552 55.158 48.0427 54.8055L47.0137 53.0905C46.7612 53.242 46.4676 53.326 46.1062 53.326V55.326ZM48.0321 54.8118C48.6185 54.4697 49.0811 53.9969 49.3895 53.3973L47.6109 52.4827C47.4873 52.7231 47.3019 52.9223 47.0243 53.0842L48.0321 54.8118ZM48.0051 53.8088L49.6791 54.7628L50.6693 53.0252L48.9953 52.0712L48.0051 53.8088ZM49.2918 53.4234C48.9971 53.9761 48.5778 54.4115 48.0143 54.7402L49.0221 56.4678C49.8986 55.9565 50.5833 55.2519 51.0565 54.3646L49.2918 53.4234ZM48.0143 54.7402C47.4552 55.0664 46.8325 55.234 46.1242 55.234V57.234C47.1679 57.234 48.1412 56.9816 49.0221 56.4678L48.0143 54.7402ZM53.4153 45.29L54.1224 45.9971L54.1224 45.9971L53.4153 45.29ZM51.6693 45.29L50.9452 45.9797L50.962 45.9973L50.9797 46.0141L51.6693 45.29ZM51.6693 43.544L52.3764 44.2511L52.385 44.2425L52.3935 44.2337L51.6693 43.544ZM53.4333 43.544L52.7092 44.2337L52.7176 44.2425L52.7262 44.2511L53.4333 43.544ZM51.5793 56H50.5793V57H51.5793V56ZM51.5793 47V46H50.5793V47H51.5793ZM53.5233 47H54.5233V46H53.5233V47ZM53.5233 56V57H54.5233V56H53.5233ZM52.7082 44.5829C52.6536 44.6375 52.6191 44.65 52.5513 44.65V46.65C53.1555 46.65 53.697 46.4225 54.1224 45.9971L52.7082 44.5829ZM52.5513 44.65C52.4821 44.65 52.4324 44.6358 52.359 44.5659L50.9797 46.0141C51.4102 46.4242 51.9485 46.65 52.5513 46.65V44.65ZM52.3935 44.6003C52.3235 44.5269 52.3093 44.4772 52.3093 44.408H50.3093C50.3093 45.0108 50.5351 45.5491 50.9452 45.9797L52.3935 44.6003ZM52.3093 44.408C52.3093 44.3402 52.3218 44.3057 52.3764 44.2511L50.9622 42.8369C50.5368 43.2623 50.3093 43.8038 50.3093 44.408H52.3093ZM52.3935 44.2337C52.4447 44.1798 52.477 44.166 52.5513 44.166V42.166C51.9296 42.166 51.3739 42.4042 50.9452 42.8543L52.3935 44.2337ZM52.5513 44.166C52.6256 44.166 52.6579 44.1798 52.7092 44.2337L54.1575 42.8543C53.7287 42.4042 53.173 42.166 52.5513 42.166V44.166ZM52.7262 44.2511C52.7808 44.3057 52.7933 44.3402 52.7933 44.408H54.7933C54.7933 43.8038 54.5658 43.2623 54.1404 42.8369L52.7262 44.2511ZM52.7933 44.408C52.7933 44.4614 52.7853 44.5058 52.7082 44.5829L54.1224 45.9971C54.5493 45.5702 54.7933 45.0266 54.7933 44.408H52.7933ZM52.5793 56V47H50.5793V56H52.5793ZM51.5793 48H53.5233V46H51.5793V48ZM52.5233 47V56H54.5233V47H52.5233ZM53.5233 55H51.5793V57H53.5233V55ZM62.9085 47V46H61.9085V47H62.9085ZM64.8525 47H65.8525V46H64.8525V47ZM64.8525 56V57H65.8525V56H64.8525ZM62.9085 56H61.9085V57H62.9085V56ZM62.9085 54.704H63.9085V51.5954L62.096 54.121L62.9085 54.704ZM56.5905 54.866L55.8648 55.554L55.8693 55.5587L56.5905 54.866ZM56.5905 48.134L57.3117 48.8267V48.8267L56.5905 48.134ZM62.9085 48.278L62.0993 48.8656L63.9085 51.3569V48.278H62.9085ZM58.0305 53.57L57.3156 54.2693L57.3234 54.2771L58.0305 53.57ZM62.0985 53.57L62.8056 54.2771L62.8133 54.2693L62.0985 53.57ZM62.0985 49.448L61.3836 50.1473L61.3914 50.1551L62.0985 49.448ZM58.0305 49.448L58.7376 50.1551L58.7453 50.1473L58.0305 49.448ZM62.9085 48H64.8525V46H62.9085V48ZM63.8525 47V56H65.8525V47H63.8525ZM64.8525 55H62.9085V57H64.8525V55ZM63.9085 56V54.704H61.9085V56H63.9085ZM62.096 54.121C61.5707 54.853 60.838 55.234 59.7585 55.234V57.234C61.415 57.234 62.7823 56.595 63.7209 55.287L62.096 54.121ZM59.7585 55.234C58.8017 55.234 58.004 54.8941 57.3117 54.1733L55.8693 55.5587C56.9289 56.6619 58.2433 57.234 59.7585 57.234V55.234ZM57.3162 54.178C56.6233 53.4472 56.2765 52.5744 56.2765 51.5H54.2765C54.2765 53.0656 54.8056 54.4368 55.8648 55.554L57.3162 54.178ZM56.2765 51.5C56.2765 50.411 56.6248 49.5418 57.3117 48.8267L55.8693 47.4413C54.8041 48.5502 54.2765 49.925 54.2765 51.5H56.2765ZM57.3117 48.8267C58.004 48.1059 58.8017 47.766 59.7585 47.766V45.766C58.2433 45.766 56.9289 46.3381 55.8693 47.4413L57.3117 48.8267ZM59.7585 47.766C60.8428 47.766 61.5759 48.1449 62.0993 48.8656L63.7176 47.6904C62.777 46.3951 61.4102 45.766 59.7585 45.766V47.766ZM63.9085 48.278V47H61.9085V48.278H63.9085ZM57.3234 54.2771C58.0647 55.0184 59.0034 55.38 60.0645 55.38V53.38C59.4936 53.38 59.0763 53.2016 58.7376 52.8629L57.3234 54.2771ZM60.0645 55.38C61.1256 55.38 62.0643 55.0184 62.8056 54.2771L61.3914 52.8629C61.0527 53.2016 60.6354 53.38 60.0645 53.38V55.38ZM62.8133 54.2693C63.5502 53.5161 63.9085 52.5686 63.9085 51.5H61.9085C61.9085 52.0874 61.7268 52.5199 61.3837 52.8707L62.8133 54.2693ZM63.9085 51.5C63.9085 50.4314 63.5499 49.4852 62.8056 48.7409L61.3914 50.1551C61.7271 50.4908 61.9085 50.9126 61.9085 51.5H63.9085ZM62.8133 48.7487C62.0736 47.9926 61.1325 47.62 60.0645 47.62V49.62C60.6285 49.62 61.0434 49.7994 61.3837 50.1473L62.8133 48.7487ZM60.0645 47.62C58.9965 47.62 58.0554 47.9926 57.3157 48.7487L58.7453 50.1473C59.0856 49.7994 59.5005 49.62 60.0645 49.62V47.62ZM57.3234 48.7409C56.5791 49.4852 56.2205 50.4314 56.2205 51.5H58.2205C58.2205 50.9126 58.4019 50.4908 58.7376 50.1551L57.3234 48.7409ZM56.2205 51.5C56.2205 52.5686 56.5788 53.5161 57.3157 54.2693L58.7453 52.8707C58.4022 52.5199 58.2205 52.0874 58.2205 51.5H56.2205ZM67.1184 56H66.1184V57H67.1184V56ZM67.1184 42.86V41.86H66.1184V42.86H67.1184ZM69.0624 42.86H70.0624V41.86H69.0624V42.86ZM69.0624 56V57H70.0624V56H69.0624ZM68.1184 56V42.86H66.1184V56H68.1184ZM67.1184 43.86H69.0624V41.86H67.1184V43.86ZM68.0624 42.86V56H70.0624V42.86H68.0624ZM69.0624 55H67.1184V57H69.0624V55ZM78.8255 45.38V46.38H79.8255V45.38H78.8255ZM73.5155 45.38V44.38H72.5155V45.38H73.5155ZM73.5155 48.908H72.5155V49.908H73.5155V48.908ZM78.6455 48.908H79.6455V47.908H78.6455V48.908ZM78.6455 50.888V51.888H79.6455V50.888H78.6455ZM73.5155 50.888V49.888H72.5155V50.888H73.5155ZM73.5155 56V57H74.5155V56H73.5155ZM71.4455 56H70.4455V57H71.4455V56ZM71.4455 43.4V42.4H70.4455V43.4H71.4455ZM78.8255 43.4H79.8255V42.4H78.8255V43.4ZM78.8255 44.38H73.5155V46.38H78.8255V44.38ZM72.5155 45.38V48.908H74.5155V45.38H72.5155ZM73.5155 49.908H78.6455V47.908H73.5155V49.908ZM77.6455 48.908V50.888H79.6455V48.908H77.6455ZM78.6455 49.888H73.5155V51.888H78.6455V49.888ZM72.5155 50.888V56H74.5155V50.888H72.5155ZM73.5155 55H71.4455V57H73.5155V55ZM72.4455 56V43.4H70.4455V56H72.4455ZM71.4455 44.4H78.8255V42.4H71.4455V44.4ZM77.8255 43.4V45.38H79.8255V43.4H77.8255ZM82.472 45.29L83.1791 45.9971V45.9971L82.472 45.29ZM80.726 45.29L80.0018 45.9797L80.0186 45.9973L80.0363 46.0141L80.726 45.29ZM80.726 43.544L81.4331 44.2511L81.4417 44.2425L81.4501 44.2337L80.726 43.544ZM82.49 43.544L81.7658 44.2337L81.7742 44.2425L81.7828 44.2511L82.49 43.544ZM80.636 56H79.636V57H80.636V56ZM80.636 47V46H79.636V47H80.636ZM82.58 47H83.58V46H82.58V47ZM82.58 56V57H83.58V56H82.58ZM81.7648 44.5829C81.7102 44.6375 81.6757 44.65 81.608 44.65V46.65C82.2122 46.65 82.7537 46.4225 83.1791 45.9971L81.7648 44.5829ZM81.608 44.65C81.5387 44.65 81.489 44.6358 81.4156 44.5659L80.0363 46.0141C80.4669 46.4242 81.0052 46.65 81.608 46.65V44.65ZM81.4501 44.6003C81.3802 44.5269 81.366 44.4772 81.366 44.408H79.366C79.366 45.0108 79.5917 45.5491 80.0018 45.9797L81.4501 44.6003ZM81.366 44.408C81.366 44.3402 81.3785 44.3057 81.4331 44.2511L80.0188 42.8369C79.5934 43.2623 79.366 43.8038 79.366 44.408H81.366ZM81.4501 44.2337C81.5014 44.1798 81.5336 44.166 81.608 44.166V42.166C80.9863 42.166 80.4306 42.4042 80.0018 42.8543L81.4501 44.2337ZM81.608 44.166C81.6823 44.166 81.7146 44.1798 81.7658 44.2337L83.2141 42.8543C82.7854 42.4042 82.2296 42.166 81.608 42.166V44.166ZM81.7828 44.2511C81.8375 44.3057 81.85 44.3402 81.85 44.408H83.85C83.85 43.8038 83.6225 43.2623 83.1971 42.8369L81.7828 44.2511ZM81.85 44.408C81.85 44.4614 81.8419 44.5058 81.7648 44.5829L83.1791 45.9971C83.606 45.5702 83.85 45.0266 83.85 44.408H81.85ZM81.636 56V47H79.636V56H81.636ZM80.636 48H82.58V46H80.636V48ZM81.58 47V56H83.58V47H81.58ZM82.58 55H80.636V57H82.58V55Z" fill="url(#paint0_linear_507_247)" mask="url(#path-2-inside-1_507_247)"/>
<mask id="path-4-inside-2_507_247" fill="white">
<path d="M33.5636 37L30.7216 27.2H31.7576L34.1796 35.67L36.7276 27.2H37.8756L40.4236 35.67L42.8456 27.2H43.8816L41.0396 37H39.8636L37.3016 28.488L34.7396 37H33.5636ZM47.6816 29.832C48.7176 29.832 49.553 30.2007 50.1876 30.938C50.8316 31.666 51.1536 32.5293 51.1536 33.528C51.1536 33.6307 51.1443 33.7753 51.1256 33.962H44.9796C45.073 34.6713 45.3716 35.236 45.8756 35.656C46.389 36.0667 47.019 36.272 47.7656 36.272C48.2976 36.272 48.755 36.1647 49.1376 35.95C49.5296 35.726 49.8236 35.4367 50.0196 35.082L50.8316 35.558C50.5236 36.0527 50.1036 36.4447 49.5716 36.734C49.0396 37.0233 48.433 37.168 47.7516 37.168C46.6503 37.168 45.7543 36.8227 45.0636 36.132C44.373 35.4413 44.0276 34.564 44.0276 33.5C44.0276 32.4547 44.3683 31.582 45.0496 30.882C45.731 30.182 46.6083 29.832 47.6816 29.832ZM47.6816 30.728C46.9536 30.728 46.3423 30.9473 45.8476 31.386C45.3623 31.8153 45.073 32.3753 44.9796 33.066H50.2016C50.1083 32.3287 49.8236 31.7547 49.3476 31.344C48.8716 30.9333 48.3163 30.728 47.6816 30.728ZM56.3754 29.832C57.3741 29.832 58.2234 30.1867 58.9234 30.896C59.6327 31.6053 59.9874 32.4733 59.9874 33.5C59.9874 34.5267 59.6327 35.3947 58.9234 36.104C58.2234 36.8133 57.3741 37.168 56.3754 37.168C55.1341 37.168 54.1914 36.6547 53.5474 35.628V37H52.6234V27.2H53.5474V31.372C54.1914 30.3453 55.1341 29.832 56.3754 29.832ZM54.3454 35.474C54.8774 36.006 55.5307 36.272 56.3054 36.272C57.0801 36.272 57.7334 36.006 58.2654 35.474C58.7974 34.9327 59.0634 34.2747 59.0634 33.5C59.0634 32.7253 58.7974 32.072 58.2654 31.54C57.7334 30.9987 57.0801 30.728 56.3054 30.728C55.5307 30.728 54.8774 30.9987 54.3454 31.54C53.8134 32.072 53.5474 32.7253 53.5474 33.5C53.5474 34.2747 53.8134 34.9327 54.3454 35.474ZM68.2018 31.274C68.9858 31.3767 69.6298 31.68 70.1338 32.184C70.6471 32.6787 70.9038 33.3367 70.9038 34.158C70.9038 35.0913 70.5818 35.8287 69.9378 36.37C69.3031 36.902 68.5285 37.168 67.6138 37.168C66.8858 37.168 66.2371 37 65.6678 36.664C65.0985 36.328 64.6971 35.8473 64.4638 35.222L65.2758 34.746C65.4345 35.2313 65.7191 35.6 66.1298 35.852C66.5405 36.0947 67.0351 36.216 67.6138 36.216C68.2858 36.216 68.8365 36.0387 69.2658 35.684C69.7045 35.32 69.9238 34.8113 69.9238 34.158C69.9238 33.5047 69.7045 33.0007 69.2658 32.646C68.8365 32.282 68.2858 32.1 67.6138 32.1V32.086L67.5998 32.1H67.3338L66.9138 31.456L69.3498 28.124H64.7438V27.2H70.4838V28.124L68.2018 31.274Z"/>
</mask>
<path d="M33.5636 37L30.7216 27.2H31.7576L34.1796 35.67L36.7276 27.2H37.8756L40.4236 35.67L42.8456 27.2H43.8816L41.0396 37H39.8636L37.3016 28.488L34.7396 37H33.5636ZM47.6816 29.832C48.7176 29.832 49.553 30.2007 50.1876 30.938C50.8316 31.666 51.1536 32.5293 51.1536 33.528C51.1536 33.6307 51.1443 33.7753 51.1256 33.962H44.9796C45.073 34.6713 45.3716 35.236 45.8756 35.656C46.389 36.0667 47.019 36.272 47.7656 36.272C48.2976 36.272 48.755 36.1647 49.1376 35.95C49.5296 35.726 49.8236 35.4367 50.0196 35.082L50.8316 35.558C50.5236 36.0527 50.1036 36.4447 49.5716 36.734C49.0396 37.0233 48.433 37.168 47.7516 37.168C46.6503 37.168 45.7543 36.8227 45.0636 36.132C44.373 35.4413 44.0276 34.564 44.0276 33.5C44.0276 32.4547 44.3683 31.582 45.0496 30.882C45.731 30.182 46.6083 29.832 47.6816 29.832ZM47.6816 30.728C46.9536 30.728 46.3423 30.9473 45.8476 31.386C45.3623 31.8153 45.073 32.3753 44.9796 33.066H50.2016C50.1083 32.3287 49.8236 31.7547 49.3476 31.344C48.8716 30.9333 48.3163 30.728 47.6816 30.728ZM56.3754 29.832C57.3741 29.832 58.2234 30.1867 58.9234 30.896C59.6327 31.6053 59.9874 32.4733 59.9874 33.5C59.9874 34.5267 59.6327 35.3947 58.9234 36.104C58.2234 36.8133 57.3741 37.168 56.3754 37.168C55.1341 37.168 54.1914 36.6547 53.5474 35.628V37H52.6234V27.2H53.5474V31.372C54.1914 30.3453 55.1341 29.832 56.3754 29.832ZM54.3454 35.474C54.8774 36.006 55.5307 36.272 56.3054 36.272C57.0801 36.272 57.7334 36.006 58.2654 35.474C58.7974 34.9327 59.0634 34.2747 59.0634 33.5C59.0634 32.7253 58.7974 32.072 58.2654 31.54C57.7334 30.9987 57.0801 30.728 56.3054 30.728C55.5307 30.728 54.8774 30.9987 54.3454 31.54C53.8134 32.072 53.5474 32.7253 53.5474 33.5C53.5474 34.2747 53.8134 34.9327 54.3454 35.474ZM68.2018 31.274C68.9858 31.3767 69.6298 31.68 70.1338 32.184C70.6471 32.6787 70.9038 33.3367 70.9038 34.158C70.9038 35.0913 70.5818 35.8287 69.9378 36.37C69.3031 36.902 68.5285 37.168 67.6138 37.168C66.8858 37.168 66.2371 37 65.6678 36.664C65.0985 36.328 64.6971 35.8473 64.4638 35.222L65.2758 34.746C65.4345 35.2313 65.7191 35.6 66.1298 35.852C66.5405 36.0947 67.0351 36.216 67.6138 36.216C68.2858 36.216 68.8365 36.0387 69.2658 35.684C69.7045 35.32 69.9238 34.8113 69.9238 34.158C69.9238 33.5047 69.7045 33.0007 69.2658 32.646C68.8365 32.282 68.2858 32.1 67.6138 32.1V32.086L67.5998 32.1H67.3338L66.9138 31.456L69.3498 28.124H64.7438V27.2H70.4838V28.124L68.2018 31.274Z" fill="#161517"/>
<path d="M33.5636 37L32.6032 37.2785L32.8124 38H33.5636V37ZM30.7216 27.2V26.2H29.3904L29.7612 27.4785L30.7216 27.2ZM31.7576 27.2L32.7191 26.9251L32.5117 26.2H31.7576V27.2ZM34.1796 35.67L33.2181 35.9449L34.1553 39.2222L35.1372 35.9581L34.1796 35.67ZM36.7276 27.2V26.2H35.9842L35.77 26.9119L36.7276 27.2ZM37.8756 27.2L38.8332 26.9119L38.6191 26.2H37.8756V27.2ZM40.4236 35.67L39.466 35.9581L40.4479 39.2222L41.3851 35.9449L40.4236 35.67ZM42.8456 27.2V26.2H42.0915L41.8841 26.9251L42.8456 27.2ZM43.8816 27.2L44.842 27.4785L45.2128 26.2H43.8816V27.2ZM41.0396 37V38H41.7908L42 37.2785L41.0396 37ZM39.8636 37L38.906 37.2882L39.1203 38H39.8636V37ZM37.3016 28.488L38.2592 28.1998L37.3016 25.0184L36.344 28.1998L37.3016 28.488ZM34.7396 37V38H35.4829L35.6972 37.2882L34.7396 37ZM34.524 36.7215L31.682 26.9215L29.7612 27.4785L32.6032 37.2785L34.524 36.7215ZM30.7216 28.2H31.7576V26.2H30.7216V28.2ZM30.7961 27.4749L33.2181 35.9449L35.1411 35.3951L32.7191 26.9251L30.7961 27.4749ZM35.1372 35.9581L37.6852 27.4881L35.77 26.9119L33.222 35.3819L35.1372 35.9581ZM36.7276 28.2H37.8756V26.2H36.7276V28.2ZM36.918 27.4881L39.466 35.9581L41.3812 35.3819L38.8332 26.9119L36.918 27.4881ZM41.3851 35.9449L43.8071 27.4749L41.8841 26.9251L39.4621 35.3951L41.3851 35.9449ZM42.8456 28.2H43.8816V26.2H42.8456V28.2ZM42.9212 26.9215L40.0792 36.7215L42 37.2785L44.842 27.4785L42.9212 26.9215ZM41.0396 36H39.8636V38H41.0396V36ZM40.8212 36.7118L38.2592 28.1998L36.344 28.7762L38.906 37.2882L40.8212 36.7118ZM36.344 28.1998L33.782 36.7118L35.6972 37.2882L38.2592 28.7762L36.344 28.1998ZM34.7396 36H33.5636V38H34.7396V36ZM50.1876 30.938L49.4297 31.5904L49.4386 31.6006L50.1876 30.938ZM51.1256 33.962V34.962H52.0306L52.1207 34.0615L51.1256 33.962ZM44.9796 33.962V32.962H43.8394L43.9882 34.0925L44.9796 33.962ZM45.8756 35.656L45.2354 36.4242L45.2431 36.4306L45.2509 36.4369L45.8756 35.656ZM49.1376 35.95L49.6269 36.8222L49.6338 36.8182L49.1376 35.95ZM50.0196 35.082L50.5253 34.2193L49.6405 33.7006L49.1444 34.5983L50.0196 35.082ZM50.8316 35.558L51.6805 36.0866L52.2234 35.2147L51.3373 34.6953L50.8316 35.558ZM49.5716 36.734L49.0939 35.8555L49.5716 36.734ZM45.0636 36.132L45.7707 35.4249L45.0636 36.132ZM45.0496 30.882L45.7662 31.5795V31.5795L45.0496 30.882ZM45.8476 31.386L46.5102 32.135L46.5111 32.1342L45.8476 31.386ZM44.9796 33.066L43.9886 32.9321L43.8354 34.066H44.9796V33.066ZM50.2016 33.066V34.066H51.3362L51.1937 32.9404L50.2016 33.066ZM47.6816 30.832C48.4479 30.832 48.9986 31.0895 49.4297 31.5904L50.9455 30.2856C50.1073 29.3118 48.9873 28.832 47.6816 28.832V30.832ZM49.4386 31.6006C49.9161 32.1403 50.1536 32.7661 50.1536 33.528H52.1536C52.1536 32.2926 51.7472 31.1917 50.9366 30.2754L49.4386 31.6006ZM50.1536 33.528C50.1536 33.5808 50.1482 33.6867 50.1306 33.8625L52.1207 34.0615C52.1404 33.864 52.1536 33.6805 52.1536 33.528H50.1536ZM51.1256 32.962H44.9796V34.962H51.1256V32.962ZM43.9882 34.0925C44.1111 35.0264 44.5202 35.8282 45.2354 36.4242L46.5158 34.8878C46.2231 34.6438 46.0349 34.3162 45.9711 33.8315L43.9882 34.0925ZM45.2509 36.4369C45.9654 37.0084 46.8244 37.272 47.7656 37.272V35.272C47.2135 35.272 46.8125 35.1249 46.5003 34.8751L45.2509 36.4369ZM47.7656 37.272C48.4327 37.272 49.0661 37.1367 49.6269 36.8221L48.6484 35.0779C48.4439 35.1926 48.1625 35.272 47.7656 35.272V37.272ZM49.6338 36.8182C50.1663 36.5139 50.6003 36.0987 50.8949 35.5657L49.1444 34.5983C49.047 34.7746 48.8929 34.9381 48.6415 35.0818L49.6338 36.8182ZM49.5139 35.9447L50.3259 36.4207L51.3373 34.6953L50.5253 34.2193L49.5139 35.9447ZM49.9827 35.0294C49.7698 35.3715 49.4802 35.6454 49.0939 35.8555L50.0494 37.6125C50.7271 37.2439 51.2775 36.7339 51.6805 36.0866L49.9827 35.0294ZM49.0939 35.8555C48.726 36.0556 48.2873 36.168 47.7516 36.168V38.168C48.5787 38.168 49.3532 37.9911 50.0494 37.6125L49.0939 35.8555ZM47.7516 36.168C46.8786 36.168 46.2493 35.9034 45.7707 35.4249L44.3565 36.8391C45.2593 37.7419 46.422 38.168 47.7516 38.168V36.168ZM45.7707 35.4249C45.2853 34.9394 45.0276 34.3249 45.0276 33.5H43.0276C43.0276 34.8031 43.4606 35.9432 44.3565 36.8391L45.7707 35.4249ZM45.0276 33.5C45.0276 32.6951 45.2802 32.0788 45.7662 31.5795L44.333 30.1845C43.4564 31.0852 43.0276 32.2143 43.0276 33.5H45.0276ZM45.7662 31.5795C46.2397 31.093 46.8488 30.832 47.6816 30.832V28.832C46.3678 28.832 45.2222 29.271 44.333 30.1845L45.7662 31.5795ZM47.6816 29.728C46.7358 29.728 45.8808 30.0201 45.1841 30.6378L46.5111 32.1342C46.8038 31.8746 47.1715 31.728 47.6816 31.728V29.728ZM45.1851 30.637C44.5058 31.2379 44.1115 32.0231 43.9886 32.9321L45.9706 33.1999C46.0344 32.7276 46.2188 32.3928 46.5102 32.135L45.1851 30.637ZM44.9796 34.066H50.2016V32.066H44.9796V34.066ZM51.1937 32.9404C51.0753 32.0052 50.6972 31.1876 50.0009 30.5868L48.6944 32.1012C48.9501 32.3218 49.1413 32.6521 49.2095 33.1916L51.1937 32.9404ZM50.0009 30.5868C49.3414 30.0179 48.5536 29.728 47.6816 29.728V31.728C48.079 31.728 48.4019 31.8488 48.6944 32.1012L50.0009 30.5868ZM58.9234 30.896L58.2116 31.5984L58.2163 31.6031L58.9234 30.896ZM58.9234 36.104L58.2163 35.3969L58.2116 35.4016L58.9234 36.104ZM53.5474 35.628L54.3945 35.0966L52.5474 32.1519V35.628H53.5474ZM53.5474 37V38H54.5474V37H53.5474ZM52.6234 37H51.6234V38H52.6234V37ZM52.6234 27.2V26.2H51.6234V27.2H52.6234ZM53.5474 27.2H54.5474V26.2H53.5474V27.2ZM53.5474 31.372H52.5474V34.8481L54.3945 31.9034L53.5474 31.372ZM54.3454 35.474L53.6322 36.175L53.6383 36.1811L54.3454 35.474ZM58.2654 35.474L58.9725 36.1811L58.9786 36.1749L58.2654 35.474ZM58.2654 31.54L57.5522 32.241L57.5583 32.2471L58.2654 31.54ZM54.3454 31.54L55.0525 32.2471L55.0586 32.2409L54.3454 31.54ZM56.3754 30.832C57.1072 30.832 57.7 31.0799 58.2116 31.5984L59.6352 30.1936C58.7468 29.2934 57.6409 28.832 56.3754 28.832V30.832ZM58.2163 31.6031C58.7332 32.12 58.9874 32.7316 58.9874 33.5H60.9874C60.9874 32.2151 60.5323 31.0906 59.6305 30.1889L58.2163 31.6031ZM58.9874 33.5C58.9874 34.2684 58.7332 34.88 58.2163 35.3969L59.6305 36.8111C60.5323 35.9094 60.9874 34.7849 60.9874 33.5H58.9874ZM58.2116 35.4016C57.7 35.9201 57.1072 36.168 56.3754 36.168V38.168C57.6409 38.168 58.7468 37.7066 59.6352 36.8064L58.2116 35.4016ZM56.3754 36.168C55.4681 36.168 54.8503 35.8232 54.3945 35.0966L52.7003 36.1594C53.5325 37.4861 54.8 38.168 56.3754 38.168V36.168ZM52.5474 35.628V37H54.5474V35.628H52.5474ZM53.5474 36H52.6234V38H53.5474V36ZM53.6234 37V27.2H51.6234V37H53.6234ZM52.6234 28.2H53.5474V26.2H52.6234V28.2ZM52.5474 27.2V31.372H54.5474V27.2H52.5474ZM54.3945 31.9034C54.8503 31.1768 55.4681 30.832 56.3754 30.832V28.832C54.8 28.832 53.5325 29.5139 52.7003 30.8406L54.3945 31.9034ZM53.6383 36.1811C54.364 36.9068 55.2743 37.272 56.3054 37.272V35.272C55.7872 35.272 55.3908 35.1052 55.0525 34.7669L53.6383 36.1811ZM56.3054 37.272C57.3365 37.272 58.2468 36.9068 58.9725 36.1811L57.5583 34.7669C57.22 35.1052 56.8237 35.272 56.3054 35.272V37.272ZM58.9786 36.1749C59.6986 35.4423 60.0634 34.5308 60.0634 33.5H58.0634C58.0634 34.0185 57.8962 34.423 57.5522 34.7731L58.9786 36.1749ZM60.0634 33.5C60.0634 32.4689 59.6982 31.5586 58.9725 30.8329L57.5583 32.2471C57.8966 32.5854 58.0634 32.9818 58.0634 33.5H60.0634ZM58.9786 30.8391C58.2543 30.102 57.3421 29.728 56.3054 29.728V31.728C56.8181 31.728 57.2125 31.8953 57.5522 32.2409L58.9786 30.8391ZM56.3054 29.728C55.2687 29.728 54.3565 30.102 53.6322 30.8391L55.0586 32.2409C55.3983 31.8953 55.7927 31.728 56.3054 31.728V29.728ZM53.6383 30.8329C52.9126 31.5586 52.5474 32.4689 52.5474 33.5H54.5474C54.5474 32.9818 54.7142 32.5854 55.0525 32.2471L53.6383 30.8329ZM52.5474 33.5C52.5474 34.5308 52.9122 35.4423 53.6322 36.1749L55.0586 34.7731C54.7146 34.423 54.5474 34.0185 54.5474 33.5H52.5474ZM68.2018 31.274L67.392 30.6873L66.4066 32.0475L68.072 32.2655L68.2018 31.274ZM70.1338 32.184L69.4267 32.8911L69.4332 32.8977L69.4399 32.9041L70.1338 32.184ZM69.9378 36.37L70.5802 37.1364L70.5812 37.1355L69.9378 36.37ZM65.6678 36.664L66.1761 35.8028L65.6678 36.664ZM64.4638 35.222L63.9581 34.3593L63.2331 34.7843L63.5269 35.5716L64.4638 35.222ZM65.2758 34.746L66.2263 34.4353L65.8407 33.2557L64.7701 33.8833L65.2758 34.746ZM66.1298 35.852L65.6068 36.7043L65.6139 36.7087L65.6211 36.7129L66.1298 35.852ZM69.2658 35.684L69.9027 36.455L69.9044 36.4536L69.2658 35.684ZM69.2658 32.646L68.6191 33.4088L68.628 33.4163L68.6371 33.4236L69.2658 32.646ZM67.6138 32.1H66.6138V33.1H67.6138V32.1ZM67.6138 32.086H68.6138V29.6718L66.9067 31.3789L67.6138 32.086ZM67.5998 32.1V33.1H68.014L68.3069 32.8071L67.5998 32.1ZM67.3338 32.1L66.4962 32.6463L66.7921 33.1H67.3338V32.1ZM66.9138 31.456L66.1065 30.8658L65.6988 31.4236L66.0762 32.0023L66.9138 31.456ZM69.3498 28.124L70.1571 28.7142L71.3196 27.124H69.3498V28.124ZM64.7438 28.124H63.7438V29.124H64.7438V28.124ZM64.7438 27.2V26.2H63.7438V27.2H64.7438ZM70.4838 27.2H71.4838V26.2H70.4838V27.2ZM70.4838 28.124L71.2936 28.7107L71.4838 28.4482V28.124H70.4838ZM68.072 32.2655C68.6627 32.3429 69.0956 32.56 69.4267 32.8911L70.8409 31.4769C70.164 30.8 69.3089 30.4104 68.3316 30.2825L68.072 32.2655ZM69.4399 32.9041C69.7274 33.1811 69.9038 33.5633 69.9038 34.158H71.9038C71.9038 33.1101 71.5669 32.1762 70.8277 31.4639L69.4399 32.9041ZM69.9038 34.158C69.9038 34.8325 69.6858 35.2754 69.2943 35.6045L70.5812 37.1355C71.4778 36.3819 71.9038 35.3502 71.9038 34.158H69.9038ZM69.2954 35.6036C68.8599 35.9687 68.3198 36.168 67.6138 36.168V38.168C68.7371 38.168 69.7463 37.8353 70.5802 37.1364L69.2954 35.6036ZM67.6138 36.168C67.046 36.168 66.5761 36.0389 66.1761 35.8028L65.1595 37.5252C65.8981 37.9611 66.7256 38.168 67.6138 38.168V36.168ZM66.1761 35.8028C65.806 35.5844 65.5548 35.2854 65.4007 34.8724L63.5269 35.5716C63.8395 36.4093 64.3909 37.0716 65.1595 37.5252L66.1761 35.8028ZM64.9695 36.0847L65.7815 35.6087L64.7701 33.8833L63.9581 34.3593L64.9695 36.0847ZM64.3253 35.0567C64.5529 35.753 64.9812 36.3204 65.6068 36.7043L66.6528 34.9997C66.4571 34.8796 66.316 34.7097 66.2263 34.4353L64.3253 35.0567ZM65.6211 36.7129C66.2156 37.0643 66.8943 37.216 67.6138 37.216V35.216C67.176 35.216 66.8653 35.1251 66.6385 34.9911L65.6211 36.7129ZM67.6138 37.216C68.4683 37.216 69.2591 36.9866 69.9027 36.455L68.6289 34.913C68.4139 35.0907 68.1033 35.216 67.6138 35.216V37.216ZM69.9044 36.4536C70.607 35.8705 70.9238 35.0602 70.9238 34.158H68.9238C68.9238 34.5625 68.8019 34.7695 68.6272 34.9144L69.9044 36.4536ZM70.9238 34.158C70.9238 33.2563 70.6067 32.4442 69.8945 31.8684L68.6371 33.4236C68.8022 33.5571 68.9238 33.7531 68.9238 34.158H70.9238ZM69.9125 31.8832C69.2689 31.3376 68.4746 31.1 67.6138 31.1V33.1C68.097 33.1 68.404 33.2264 68.6191 33.4088L69.9125 31.8832ZM68.6138 32.1V32.086H66.6138V32.1H68.6138ZM66.9067 31.3789L66.8927 31.3929L68.3069 32.8071L68.3209 32.7931L66.9067 31.3789ZM67.5998 31.1H67.3338V33.1H67.5998V31.1ZM68.1714 31.5537L67.7514 30.9097L66.0762 32.0023L66.4962 32.6463L68.1714 31.5537ZM67.7211 32.0462L70.1571 28.7142L68.5425 27.5338L66.1065 30.8658L67.7211 32.0462ZM69.3498 27.124H64.7438V29.124H69.3498V27.124ZM65.7438 28.124V27.2H63.7438V28.124H65.7438ZM64.7438 28.2H70.4838V26.2H64.7438V28.2ZM69.4838 27.2V28.124H71.4838V27.2H69.4838ZM69.674 27.5373L67.392 30.6873L69.0116 31.8607L71.2936 28.7107L69.674 27.5373Z" fill="url(#paint1_linear_507_247)" mask="url(#path-4-inside-2_507_247)"/>
<path d="M25.197 31.8855H19.8556C15.7004 31.8855 12.3271 35.2521 12.3271 39.4139V59.7062C12.3271 63.8614 15.7004 67.2346 19.8556 67.2346H64.0121C64.6748 67.2346 65.205 67.7714 65.205 68.4275V73.3315C65.205 74.3985 66.4907 74.9287 67.2462 74.1732L73.8401 67.5792C74.0655 67.3539 74.3703 67.228 74.6818 67.228H82.1439C86.2991 67.228 89.6723 63.8548 89.6723 59.6995V39.4139C89.6723 35.2587 86.2991 31.8855 82.1439 31.8855H77.3194" stroke="#918F9E" stroke-linecap="round" stroke-linejoin="round"/>
<defs>
<linearGradient id="paint0_linear_507_247" x1="84" y1="60" x2="19" y2="60" gradientUnits="userSpaceOnUse">
<stop stop-color="#80A0E2"/>
<stop offset="0.489293" stop-color="#E1C8CC"/>
<stop offset="1" stop-color="#80CCE0"/>
</linearGradient>
<linearGradient id="paint1_linear_507_247" x1="73.7692" y1="38.3846" x2="28" y2="38.3846" gradientUnits="userSpaceOnUse">
<stop stop-color="#80A0E2"/>
<stop offset="0.489293" stop-color="#E1C8CC"/>
<stop offset="1" stop-color="#80CCE0"/>
</linearGradient>
</defs>
</svg>
