<svg width="790"  viewBox="0 0 1920 2149" fill="none" xmlns="http://www.w3.org/2000/svg">
<path d="M842.858 1736.19C1068.09 1565.59 1112.38 1244.7 941.782 1019.47C771.183 794.235 450.298 749.945 225.064 920.544C-0.16961 1091.14 -44.4598 1412.03 126.139 1637.26C296.738 1862.5 617.624 1906.79 842.858 1736.19Z" fill="url(#paint0_linear_5901_171)"/>
<path d="M882.029 1155.59L1758.56 1337.98L1940.94 461.454L1064.42 279.067L882.029 1155.59Z" fill="url(#paint1_linear_5901_171)"/>
<path d="M882.029 1155.6L1758.56 1337.98L1940.94 461.455L1064.42 279.068L882.029 1155.6Z" fill="url(#paint2_radial_5901_171)" stroke="url(#paint3_linear_5901_171)" stroke-linecap="round" stroke-linejoin="round"/>
<path d="M842.858 1736.19C1068.09 1565.59 1112.38 1244.7 941.782 1019.47C771.183 794.235 450.298 749.945 225.064 920.544C-0.16961 1091.14 -44.4598 1412.03 126.139 1637.26C296.738 1862.5 617.624 1906.79 842.858 1736.19Z" fill="url(#paint4_radial_5901_171)" stroke="url(#paint5_linear_5901_171)" stroke-linecap="round" stroke-linejoin="round"/>
<defs>
<linearGradient id="paint0_linear_5901_171" x1="69.2065" y1="1542.24" x2="998.722" y2="1114.49" gradientUnits="userSpaceOnUse">
<stop stop-color="#80CCE0"/>
<stop offset="0.5" stop-color="#E1C8CC"/>
<stop offset="1" stop-color="#80A0E2"/>
</linearGradient>
<linearGradient id="paint1_linear_5901_171" x1="1849.75" y1="899.718" x2="973.223" y2="717.331" gradientUnits="userSpaceOnUse">
<stop stop-color="#80CCE0"/>
<stop offset="0.5" stop-color="#E1C8CC"/>
<stop offset="1" stop-color="#80A0E2"/>
</linearGradient>
<radialGradient id="paint2_radial_5901_171" cx="0" cy="0" r="1" gradientUnits="userSpaceOnUse" gradientTransform="translate(882 1125) rotate(-174.867) scale(1149.39 1149.39)">
<stop stop-color="#161517" stop-opacity="0.69"/>
<stop offset="0.672916" stop-color="#161517"/>
</radialGradient>
<linearGradient id="paint3_linear_5901_171" x1="1141.88" y1="1227.47" x2="1508.05" y2="773.209" gradientUnits="userSpaceOnUse">
<stop offset="0.00107281" stop-color="#918F9E"/>
<stop offset="1" stop-color="#161517"/>
</linearGradient>
<radialGradient id="paint4_radial_5901_171" cx="0" cy="0" r="1" gradientUnits="userSpaceOnUse" gradientTransform="translate(1147 967) rotate(-38.5101) scale(1409.81)">
<stop stop-color="#161517" stop-opacity="0.62"/>
<stop offset="0.520034" stop-color="#161517"/>
</radialGradient>
<linearGradient id="paint5_linear_5901_171" x1="812.252" y1="930.056" x2="574.904" y2="1334.39" gradientUnits="userSpaceOnUse">
<stop stop-color="#918F9E"/>
<stop offset="1" stop-color="#161517"/>
</linearGradient>
</defs>
</svg>